<svg xmlns="http://www.w3.org/2000/svg" xmlns:xlink="http://www.w3.org/1999/xlink" width="46" height="43" viewBox="0 0 46 43"><defs><path id="9pnxa" d="M315 183a2 2 0 0 1 2-2h35a2 2 0 0 1 2 2v25a2 2 0 0 1-2 2h-35a2 2 0 0 1-2-2z"/><path id="9pnxb" d="M340 195a5 5 0 0 1 5-5h9v10h-9a5 5 0 0 1-5-5z"/><path id="9pnxc" d="M349 182v-9l-33 9z"/><path id="9pnxd" d="M308 216v-23h23v23zm3-11.5a8.5 8.5 0 1 0 17 0 8.5 8.5 0 0 0-17 0z"/><path id="9pnxe" d="M319.5 196a8.5 8.5 0 1 1 0 17 8.5 8.5 0 0 1 0-17z"/><path id="9pnxf" d="M319 209v-9h1v9z"/><path id="9pnxg" d="M315 205v-1h9v1z"/><clipPath id="9pnxh"><use fill="#fff" xlink:href="#9pnxa"/></clipPath><clipPath id="9pnxi"><use fill="#fff" xlink:href="#9pnxb"/></clipPath><clipPath id="9pnxj"><use fill="#fff" xlink:href="#9pnxc"/></clipPath><clipPath id="9pnxk"><use fill="#fff" xlink:href="#9pnxd"/></clipPath><clipPath id="9pnxl"><use fill="#fff" xlink:href="#9pnxe"/></clipPath><clipPath id="9pnxm"><use fill="#fff" xlink:href="#9pnxf"/></clipPath><clipPath id="9pnxn"><use fill="#fff" xlink:href="#9pnxg"/></clipPath></defs><g><g transform="translate(-308 -173)"><use fill="#fff" fill-opacity="0" stroke="#67aa57" stroke-miterlimit="50" stroke-width="2.6" clip-path="url(&quot;#9pnxh&quot;)" xlink:href="#9pnxa"/></g><g transform="translate(-308 -173)"><use fill="#fff" fill-opacity="0" stroke="#67aa57" stroke-miterlimit="50" stroke-width="2.6" clip-path="url(&quot;#9pnxi&quot;)" xlink:href="#9pnxb"/></g><g transform="translate(-308 -173)"><use fill="#fff" fill-opacity="0" stroke="#67aa57" stroke-miterlimit="50" stroke-width="2.6" clip-path="url(&quot;#9pnxj&quot;)" xlink:href="#9pnxc"/></g><g transform="translate(-308 -173)"><use fill="#fff" xlink:href="#9pnxe"/><use fill="#fff" fill-opacity="0" stroke="#fff" stroke-linecap="round" stroke-linejoin="round" stroke-miterlimit="50" stroke-width="6" clip-path="url(&quot;#9pnxk&quot;)" xlink:href="#9pnxe"/><use fill="#fff" fill-opacity="0" stroke="#67aa57" stroke-miterlimit="50" stroke-width="2.6" clip-path="url(&quot;#9pnxl&quot;)" xlink:href="#9pnxe"/></g><g transform="translate(-308 -173)"><use fill="#fff" xlink:href="#9pnxf"/><use fill="#fff" fill-opacity="0" stroke="#67aa57" stroke-miterlimit="50" stroke-width="2" clip-path="url(&quot;#9pnxm&quot;)" xlink:href="#9pnxf"/></g><g transform="translate(-308 -173)"><use fill="#fff" xlink:href="#9pnxg"/><use fill="#fff" fill-opacity="0" stroke="#67aa57" stroke-miterlimit="50" stroke-width="2" clip-path="url(&quot;#9pnxn&quot;)" xlink:href="#9pnxg"/></g></g></svg>